<svg width="99" height="67" viewBox="0 0 99 67" fill="none" xmlns="http://www.w3.org/2000/svg">
<rect width="99" height="67" rx="24" fill="#0A3871"/>
<path d="M25.8388 39H30.0433C32.7933 39 33.9297 37.6591 33.9297 35.9091C33.9297 34.0682 32.657 33.0682 31.5888 33V32.8864C32.5888 32.6136 33.4751 31.9545 33.4751 30.4545C33.4751 28.75 32.3388 27.3636 29.907 27.3636H25.8388V39ZM27.2479 37.75V33.7045H30.1115C31.6342 33.7045 32.5888 34.7273 32.5888 35.9091C32.5888 36.9318 31.8842 37.75 30.0433 37.75H27.2479ZM27.2479 32.4773V28.6136H29.907C31.4524 28.6136 32.1342 29.4318 32.1342 30.4545C32.1342 31.6818 31.1342 32.4773 29.8615 32.4773H27.2479ZM41.5632 35.4318C41.5632 37.0682 40.3132 37.8182 39.3132 37.8182C38.1996 37.8182 37.4041 37 37.4041 35.7273V30.2727H36.0632V35.8182C36.0632 38.0455 37.245 39.1136 38.8814 39.1136C40.1996 39.1136 41.0632 38.4091 41.4723 37.5227H41.5632V39H42.9041V30.2727H41.5632V35.4318ZM49.1555 30.2727H47.2919V28.1818H45.951V30.2727H44.6328V31.4091H45.951V36.8636C45.951 38.3864 47.1783 39.1136 48.3146 39.1136C48.8146 39.1136 49.1328 39.0227 49.3146 38.9545L49.0419 37.75C48.9283 37.7727 48.7464 37.8182 48.451 37.8182C47.8601 37.8182 47.2919 37.6364 47.2919 36.5V31.4091H49.1555V30.2727ZM54.968 30.2727H53.1044V28.1818H51.7635V30.2727H50.4453V31.4091H51.7635V36.8636C51.7635 38.3864 52.9908 39.1136 54.1271 39.1136C54.6271 39.1136 54.9453 39.0227 55.1271 38.9545L54.8544 37.75C54.7408 37.7727 54.5589 37.8182 54.2635 37.8182C53.6726 37.8182 53.1044 37.6364 53.1044 36.5V31.4091H54.968V30.2727ZM60.4368 39.1818C62.8004 39.1818 64.3913 37.3864 64.3913 34.6818C64.3913 31.9545 62.8004 30.1591 60.4368 30.1591C58.0732 30.1591 56.4822 31.9545 56.4822 34.6818C56.4822 37.3864 58.0732 39.1818 60.4368 39.1818ZM60.4368 37.9773C58.6413 37.9773 57.8232 36.4318 57.8232 34.6818C57.8232 32.9318 58.6413 31.3636 60.4368 31.3636C62.2322 31.3636 63.0504 32.9318 63.0504 34.6818C63.0504 36.4318 62.2322 37.9773 60.4368 37.9773ZM67.7791 33.75C67.7791 32.2273 68.7223 31.3636 70.0064 31.3636C71.2507 31.3636 72.0064 32.1761 72.0064 33.5455V39H73.3473V33.4545C73.3473 31.2273 72.1598 30.1591 70.3928 30.1591C69.0746 30.1591 68.2564 30.75 67.8473 31.6364H67.7337V30.2727H66.4382V39H67.7791V33.75Z" fill="white"/>
</svg>
